<mxfile host="app.diagrams.net" modified="2024-07-24T21:21:07.774Z" agent="Mozilla/5.0 (Windows NT 10.0; Win64; x64) AppleWebKit/537.36 (KHTML, like Gecko) Chrome/126.0.0.0 Safari/537.36" etag="Z2uTDyLH-fxHt9c-9zQ2" version="24.6.4" type="device">
  <diagram name="Página-1" id="xTaMDswXWqooPwMAF9YH">
    <mxGraphModel dx="1027" dy="949" grid="1" gridSize="10" guides="1" tooltips="1" connect="1" arrows="1" fold="1" page="1" pageScale="1" pageWidth="827" pageHeight="1169" math="0" shadow="0">
      <root>
        <mxCell id="0" />
        <mxCell id="1" parent="0" />
        <mxCell id="ieIyzetEA8g9ighdvRgT-43" value="Legenda" style="rounded=1;whiteSpace=wrap;html=1;sketch=1;curveFitting=1;jiggle=2;shadow=1;strokeColor=#1ba2ff;verticalAlign=bottom;align=left;spacingLeft=9;" parent="1" vertex="1">
          <mxGeometry x="836" y="838" width="780" height="190" as="geometry" />
        </mxCell>
        <mxCell id="ieIyzetEA8g9ighdvRgT-21" value="Fechamento automático" style="rounded=1;whiteSpace=wrap;html=1;sketch=1;curveFitting=1;jiggle=2;shadow=1;strokeColor=#1ba2ff;dashed=1;strokeWidth=1;perimeterSpacing=0;dashPattern=8 8;verticalAlign=bottom;align=left;spacingLeft=15;spacingBottom=10;" parent="1" vertex="1">
          <mxGeometry x="800" y="255" width="528" height="488" as="geometry" />
        </mxCell>
        <mxCell id="ieIyzetEA8g9ighdvRgT-1" value="database" style="shape=cylinder3;whiteSpace=wrap;html=1;boundedLbl=1;backgroundOutline=1;size=15;fillColor=none;strokeColor=#0284f1;shadow=1;sketch=1;curveFitting=1;jiggle=2;" parent="1" vertex="1">
          <mxGeometry x="1272" y="868" width="100" height="60" as="geometry" />
        </mxCell>
        <mxCell id="ieIyzetEA8g9ighdvRgT-2" value="Service" style="ellipse;whiteSpace=wrap;html=1;fillColor=none;strokeColor=#1ba2ff;sketch=1;curveFitting=1;jiggle=2;shadow=1;" parent="1" vertex="1">
          <mxGeometry x="1022" y="868" width="120" height="60" as="geometry" />
        </mxCell>
        <mxCell id="ieIyzetEA8g9ighdvRgT-3" value="front-end" style="rounded=1;whiteSpace=wrap;html=1;sketch=1;curveFitting=1;jiggle=2;shadow=1;strokeColor=#1ba2ff;" parent="1" vertex="1">
          <mxGeometry x="892" y="868" width="120" height="60" as="geometry" />
        </mxCell>
        <mxCell id="ieIyzetEA8g9ighdvRgT-4" value="Actor" style="shape=umlActor;verticalLabelPosition=bottom;verticalAlign=top;html=1;outlineConnect=0;shadow=1;sketch=1;curveFitting=1;jiggle=2;strokeColor=#0284f1;" parent="1" vertex="1">
          <mxGeometry x="852" y="871" width="30" height="60" as="geometry" />
        </mxCell>
        <mxCell id="ieIyzetEA8g9ighdvRgT-5" value="batch" style="shape=trapezoid;perimeter=trapezoidPerimeter;whiteSpace=wrap;html=1;fixedSize=1;rounded=1;shadow=1;sketch=1;curveFitting=1;jiggle=2;fillColor=none;strokeColor=#1399fa;" parent="1" vertex="1">
          <mxGeometry x="1142" y="868" width="120" height="60" as="geometry" />
        </mxCell>
        <mxCell id="ieIyzetEA8g9ighdvRgT-6" value="blackbox" style="rounded=1;whiteSpace=wrap;html=1;fillColor=#1ba2ff;sketch=1;curveFitting=1;jiggle=2;shadow=1;strokeColor=#1ba2ff;" parent="1" vertex="1">
          <mxGeometry x="1382" y="868" width="120" height="60" as="geometry" />
        </mxCell>
        <mxCell id="ieIyzetEA8g9ighdvRgT-7" value="" style="endArrow=classic;html=1;rounded=0;sketch=1;curveFitting=1;jiggle=2;shadow=1;flowAnimation=0;strokeColor=#0284f1;" parent="1" edge="1">
          <mxGeometry width="50" height="50" relative="1" as="geometry">
            <mxPoint x="850" y="980" as="sourcePoint" />
            <mxPoint x="957" y="980" as="targetPoint" />
          </mxGeometry>
        </mxCell>
        <mxCell id="ieIyzetEA8g9ighdvRgT-8" value="link" style="edgeLabel;html=1;align=center;verticalAlign=middle;resizable=0;points=[];" parent="ieIyzetEA8g9ighdvRgT-7" vertex="1" connectable="0">
          <mxGeometry x="0.2227" y="-2" relative="1" as="geometry">
            <mxPoint x="-18" y="6" as="offset" />
          </mxGeometry>
        </mxCell>
        <mxCell id="ieIyzetEA8g9ighdvRgT-9" value="always link" style="html=1;verticalAlign=bottom;startArrow=circle;startFill=1;endArrow=open;startSize=6;endSize=8;curved=0;rounded=0;strokeColor=#1aa1fe;sketch=1;curveFitting=1;jiggle=2;shadow=1;" parent="1" edge="1">
          <mxGeometry x="0.0909" y="-20" width="80" relative="1" as="geometry">
            <mxPoint x="972" y="978" as="sourcePoint" />
            <mxPoint x="1082" y="978" as="targetPoint" />
            <mxPoint as="offset" />
          </mxGeometry>
        </mxCell>
        <mxCell id="ieIyzetEA8g9ighdvRgT-10" value="" style="endArrow=block;endFill=0;endSize=12;html=1;rounded=0;sketch=1;curveFitting=1;jiggle=2;shadow=1;strokeColor=#19a0fd;" parent="1" edge="1">
          <mxGeometry width="160" relative="1" as="geometry">
            <mxPoint x="1134" y="978" as="sourcePoint" />
            <mxPoint x="1254" y="978" as="targetPoint" />
          </mxGeometry>
        </mxCell>
        <mxCell id="ieIyzetEA8g9ighdvRgT-11" value="Specialization" style="edgeLabel;html=1;align=center;verticalAlign=middle;resizable=0;points=[];" parent="ieIyzetEA8g9ighdvRgT-10" vertex="1" connectable="0">
          <mxGeometry x="0.0714" y="3" relative="1" as="geometry">
            <mxPoint x="-48" y="13" as="offset" />
          </mxGeometry>
        </mxCell>
        <mxCell id="ieIyzetEA8g9ighdvRgT-12" value="" style="endArrow=diamondThin;endFill=1;endSize=24;html=1;rounded=0;shadow=1;flowAnimation=0;sketch=1;curveFitting=1;jiggle=2;strokeColor=#1ba2ff;" parent="1" edge="1">
          <mxGeometry width="160" relative="1" as="geometry">
            <mxPoint x="1224" y="978" as="sourcePoint" />
            <mxPoint x="1336" y="978" as="targetPoint" />
          </mxGeometry>
        </mxCell>
        <mxCell id="ieIyzetEA8g9ighdvRgT-13" value="Composition" style="edgeLabel;html=1;align=center;verticalAlign=middle;resizable=0;points=[];" parent="ieIyzetEA8g9ighdvRgT-12" vertex="1" connectable="0">
          <mxGeometry x="-0.18" relative="1" as="geometry">
            <mxPoint x="-4" y="10" as="offset" />
          </mxGeometry>
        </mxCell>
        <mxCell id="ieIyzetEA8g9ighdvRgT-14" value="Tier" style="rounded=1;whiteSpace=wrap;html=1;sketch=1;curveFitting=1;jiggle=2;shadow=1;strokeColor=#1ba2ff;dashed=1;strokeWidth=1;perimeterSpacing=0;dashPattern=8 8;verticalAlign=bottom;align=left;" parent="1" vertex="1">
          <mxGeometry x="1352" y="938" width="120" height="60" as="geometry" />
        </mxCell>
        <mxCell id="ieIyzetEA8g9ighdvRgT-15" value="Layer" style="rounded=1;whiteSpace=wrap;html=1;sketch=1;curveFitting=1;jiggle=2;shadow=1;strokeColor=#1ba2ff;verticalAlign=bottom;align=left;" parent="1" vertex="1">
          <mxGeometry x="1482" y="939" width="120" height="60" as="geometry" />
        </mxCell>
        <mxCell id="ieIyzetEA8g9ighdvRgT-16" value="Venda" style="ellipse;whiteSpace=wrap;html=1;fillColor=none;strokeColor=#1ba2ff;sketch=1;curveFitting=1;jiggle=2;shadow=1;" parent="1" vertex="1">
          <mxGeometry x="870" y="360" width="120" height="60" as="geometry" />
        </mxCell>
        <mxCell id="ieIyzetEA8g9ighdvRgT-17" value="Solução do&lt;div&gt;banco&lt;/div&gt;" style="rounded=1;whiteSpace=wrap;html=1;sketch=1;curveFitting=1;jiggle=2;shadow=1;strokeColor=#1ba2ff;dashed=1;strokeWidth=1;perimeterSpacing=0;dashPattern=8 8;verticalAlign=top;align=center;" parent="1" vertex="1">
          <mxGeometry x="1446" y="273" width="160" height="470" as="geometry" />
        </mxCell>
        <mxCell id="ieIyzetEA8g9ighdvRgT-19" value="Caas (taxa)" style="ellipse;whiteSpace=wrap;html=1;fillColor=none;strokeColor=#1ba2ff;sketch=1;curveFitting=1;jiggle=2;shadow=1;" parent="1" vertex="1">
          <mxGeometry x="1466" y="310" width="120" height="60" as="geometry" />
        </mxCell>
        <mxCell id="ieIyzetEA8g9ighdvRgT-22" value="Cadastro" style="ellipse;whiteSpace=wrap;html=1;fillColor=none;strokeColor=#1ba2ff;sketch=1;curveFitting=1;jiggle=2;shadow=1;" parent="1" vertex="1">
          <mxGeometry x="1100" y="590" width="120" height="60" as="geometry" />
        </mxCell>
        <mxCell id="ieIyzetEA8g9ighdvRgT-24" value="Repasse" style="ellipse;whiteSpace=wrap;html=1;fillColor=none;strokeColor=#1ba2ff;sketch=1;curveFitting=1;jiggle=2;shadow=1;" parent="1" vertex="1">
          <mxGeometry x="1100" y="317" width="120" height="60" as="geometry" />
        </mxCell>
        <mxCell id="ieIyzetEA8g9ighdvRgT-27" value="" style="endArrow=classic;html=1;rounded=0;sketch=1;curveFitting=1;jiggle=2;shadow=1;flowAnimation=0;strokeColor=#0284f1;exitX=1;exitY=1;exitDx=0;exitDy=0;entryX=0.5;entryY=0;entryDx=0;entryDy=0;labelBackgroundColor=none;" parent="1" source="ieIyzetEA8g9ighdvRgT-24" target="ieIyzetEA8g9ighdvRgT-22" edge="1">
          <mxGeometry width="50" height="50" relative="1" as="geometry">
            <mxPoint x="1016" y="468" as="sourcePoint" />
            <mxPoint x="1016" y="538" as="targetPoint" />
            <Array as="points">
              <mxPoint x="1210" y="540" />
              <mxPoint x="1160" y="540" />
            </Array>
          </mxGeometry>
        </mxCell>
        <mxCell id="ieIyzetEA8g9ighdvRgT-28" value="Busca Moeda,&lt;div style=&quot;font-size: 9px;&quot;&gt;&lt;div style=&quot;font-size: 9px;&quot;&gt;Parceiro,&lt;/div&gt;&lt;div style=&quot;font-size: 9px;&quot;&gt;&amp;nbsp;Lojista Parametros,&lt;/div&gt;&lt;/div&gt;&lt;div style=&quot;font-size: 9px;&quot;&gt;Natureza&lt;/div&gt;&lt;div style=&quot;font-size: 9px;&quot;&gt;&lt;br style=&quot;font-size: 9px;&quot;&gt;&lt;/div&gt;" style="edgeLabel;html=1;align=center;verticalAlign=middle;resizable=0;points=[];fontStyle=2;fontSize=9;labelBackgroundColor=none;" parent="ieIyzetEA8g9ighdvRgT-27" vertex="1" connectable="0">
          <mxGeometry x="0.2227" y="-2" relative="1" as="geometry">
            <mxPoint x="34" y="-91" as="offset" />
          </mxGeometry>
        </mxCell>
        <mxCell id="ieIyzetEA8g9ighdvRgT-29" value="" style="endArrow=classic;html=1;rounded=0;sketch=1;curveFitting=1;jiggle=2;shadow=1;flowAnimation=0;strokeColor=#0284f1;exitX=0.718;exitY=0.04;exitDx=0;exitDy=0;entryX=0;entryY=0.5;entryDx=0;entryDy=0;exitPerimeter=0;" parent="1" source="ieIyzetEA8g9ighdvRgT-24" target="ieIyzetEA8g9ighdvRgT-19" edge="1">
          <mxGeometry width="50" height="50" relative="1" as="geometry">
            <mxPoint x="1076" y="438" as="sourcePoint" />
            <mxPoint x="1178" y="438" as="targetPoint" />
            <Array as="points">
              <mxPoint x="1186" y="280" />
              <mxPoint x="1370" y="280" />
              <mxPoint x="1370" y="340" />
            </Array>
          </mxGeometry>
        </mxCell>
        <mxCell id="ieIyzetEA8g9ighdvRgT-30" value="&lt;div&gt;Registrar&lt;/div&gt;&lt;div&gt;Preboleto,&lt;/div&gt;&lt;div&gt;Gerar&amp;nbsp;&lt;/div&gt;&lt;div&gt;Contrato&amp;nbsp;&lt;/div&gt;&lt;div&gt;Cambio,&lt;/div&gt;&lt;div&gt;Consultar&amp;nbsp;&lt;/div&gt;&lt;div&gt;Contrato&lt;/div&gt;&lt;div&gt;Cambio&lt;/div&gt;" style="edgeLabel;html=1;align=center;verticalAlign=middle;resizable=0;points=[];" parent="ieIyzetEA8g9ighdvRgT-29" vertex="1" connectable="0">
          <mxGeometry x="0.2227" y="-2" relative="1" as="geometry">
            <mxPoint x="14" y="107" as="offset" />
          </mxGeometry>
        </mxCell>
        <mxCell id="ieIyzetEA8g9ighdvRgT-31" value="" style="endArrow=classic;html=1;rounded=0;sketch=1;curveFitting=1;jiggle=2;shadow=1;flowAnimation=0;strokeColor=#0284f1;exitX=0;exitY=1;exitDx=0;exitDy=0;entryX=1;entryY=0.5;entryDx=0;entryDy=0;" parent="1" source="ieIyzetEA8g9ighdvRgT-24" target="ieIyzetEA8g9ighdvRgT-16" edge="1">
          <mxGeometry width="50" height="50" relative="1" as="geometry">
            <mxPoint x="1006" y="458" as="sourcePoint" />
            <mxPoint x="1168" y="708" as="targetPoint" />
            <Array as="points">
              <mxPoint x="1118" y="390" />
            </Array>
          </mxGeometry>
        </mxCell>
        <mxCell id="ieIyzetEA8g9ighdvRgT-32" value="Obter Venda&amp;nbsp;&lt;div style=&quot;font-size: 9px;&quot;&gt;para&lt;/div&gt;&lt;div style=&quot;font-size: 9px;&quot;&gt;PreBoleto&lt;/div&gt;" style="edgeLabel;html=1;align=center;verticalAlign=middle;resizable=0;points=[];fontStyle=2;fontSize=9;labelBackgroundColor=none;" parent="ieIyzetEA8g9ighdvRgT-31" vertex="1" connectable="0">
          <mxGeometry x="0.2227" y="-2" relative="1" as="geometry">
            <mxPoint x="42" y="22" as="offset" />
          </mxGeometry>
        </mxCell>
        <object placeholders="1" c4Name="" c4Type="Container" c4Technology="RabbitMQ" c4Description="" label="&lt;font style=&quot;font-size: 16px&quot;&gt;&lt;b&gt;%c4Name%&lt;/b&gt;&lt;/font&gt;&lt;div&gt;[%c4Type%:&amp;nbsp;%c4Technology%]&lt;/div&gt;&lt;br&gt;&lt;div&gt;&lt;font style=&quot;font-size: 11px&quot;&gt;&lt;font&gt;%c4Description%&lt;/font&gt;&lt;/font&gt;&lt;/div&gt;" id="ieIyzetEA8g9ighdvRgT-34">
          <mxCell style="shape=cylinder3;size=15;direction=south;whiteSpace=wrap;html=1;boundedLbl=1;rounded=0;labelBackgroundColor=none;fillColor=none;fontSize=12;fontColor=#000000;align=center;strokeColor=#1ba2ff;metaEdit=1;points=[[0.5,0,0],[1,0.25,0],[1,0.5,0],[1,0.75,0],[0.5,1,0],[0,0.75,0],[0,0.5,0],[0,0.25,0]];resizable=1;sketch=1;curveFitting=1;jiggle=2;resizeHeight=1;resizeWidth=1;rotation=0;" parent="1" vertex="1">
            <mxGeometry x="862" y="580" width="160" height="80" as="geometry" />
          </mxCell>
        </object>
        <mxCell id="ieIyzetEA8g9ighdvRgT-35" value="" style="endArrow=classic;html=1;rounded=0;sketch=1;curveFitting=1;jiggle=2;shadow=1;flowAnimation=0;strokeColor=#0284f1;exitX=0.692;exitY=0.99;exitDx=0;exitDy=0;exitPerimeter=0;" parent="1" source="ieIyzetEA8g9ighdvRgT-24" edge="1" target="ieIyzetEA8g9ighdvRgT-34">
          <mxGeometry width="50" height="50" relative="1" as="geometry">
            <mxPoint x="1138" y="377" as="sourcePoint" />
            <mxPoint x="890" y="660" as="targetPoint" />
            <Array as="points">
              <mxPoint x="1183" y="500" />
              <mxPoint x="1090" y="500" />
              <mxPoint x="1090" y="620" />
            </Array>
          </mxGeometry>
        </mxCell>
        <mxCell id="ieIyzetEA8g9ighdvRgT-36" value="Envio de&amp;nbsp;&lt;div style=&quot;font-size: 9px;&quot;&gt;Fechamento&lt;/div&gt;&lt;div style=&quot;font-size: 9px;&quot;&gt;Automático&lt;/div&gt;" style="edgeLabel;html=1;align=center;verticalAlign=middle;resizable=0;points=[];fontStyle=2;fontSize=9;labelBackgroundColor=none;" parent="ieIyzetEA8g9ighdvRgT-35" vertex="1" connectable="0">
          <mxGeometry x="0.2227" y="-2" relative="1" as="geometry">
            <mxPoint x="54" y="-10" as="offset" />
          </mxGeometry>
        </mxCell>
        <mxCell id="ieIyzetEA8g9ighdvRgT-37" value="" style="endArrow=classic;html=1;rounded=0;sketch=1;curveFitting=1;jiggle=2;shadow=1;flowAnimation=0;strokeColor=#0284f1;entryX=0.903;entryY=0.822;entryDx=0;entryDy=0;exitX=0.002;exitY=0.268;exitDx=0;exitDy=0;exitPerimeter=0;entryPerimeter=0;" parent="1" source="ieIyzetEA8g9ighdvRgT-34" target="ieIyzetEA8g9ighdvRgT-16" edge="1">
          <mxGeometry width="50" height="50" relative="1" as="geometry">
            <mxPoint x="956" y="438" as="sourcePoint" />
            <mxPoint x="926" y="538" as="targetPoint" />
            <Array as="points" />
          </mxGeometry>
        </mxCell>
        <mxCell id="ieIyzetEA8g9ighdvRgT-38" value="Envio de&amp;nbsp;&lt;div style=&quot;font-size: 9px;&quot;&gt;Fechamento&lt;/div&gt;&lt;div style=&quot;font-size: 9px;&quot;&gt;Automático&lt;/div&gt;" style="edgeLabel;html=1;align=center;verticalAlign=middle;resizable=0;points=[];fontStyle=2;fontSize=9;" parent="ieIyzetEA8g9ighdvRgT-37" vertex="1" connectable="0">
          <mxGeometry x="0.2227" y="-2" relative="1" as="geometry">
            <mxPoint x="31" y="-36" as="offset" />
          </mxGeometry>
        </mxCell>
        <mxCell id="ieIyzetEA8g9ighdvRgT-39" value="" style="endArrow=classic;html=1;rounded=0;sketch=1;curveFitting=1;jiggle=2;shadow=1;flowAnimation=0;strokeColor=#0284f1;entryX=-0.004;entryY=0.815;entryDx=0;entryDy=0;entryPerimeter=0;exitX=0.178;exitY=0.876;exitDx=0;exitDy=0;exitPerimeter=0;" parent="1" source="ieIyzetEA8g9ighdvRgT-16" target="ieIyzetEA8g9ighdvRgT-34" edge="1">
          <mxGeometry width="50" height="50" relative="1" as="geometry">
            <mxPoint x="1016" y="468" as="sourcePoint" />
            <mxPoint x="1218" y="607" as="targetPoint" />
            <Array as="points" />
          </mxGeometry>
        </mxCell>
        <mxCell id="ieIyzetEA8g9ighdvRgT-40" value="&lt;div style=&quot;font-size: 9px;&quot;&gt;FeatutresRendix.&lt;/div&gt;&lt;div style=&quot;font-size: 9px;&quot;&gt;PreBoletopara&lt;/div&gt;&lt;div style=&quot;font-size: 9px;&quot;&gt;PreBoleto&lt;/div&gt;" style="edgeLabel;html=1;align=center;verticalAlign=middle;resizable=0;points=[];fontStyle=2;fontSize=9;labelBackgroundColor=none;" parent="ieIyzetEA8g9ighdvRgT-39" vertex="1" connectable="0">
          <mxGeometry x="0.2227" y="-2" relative="1" as="geometry">
            <mxPoint x="40" y="-20" as="offset" />
          </mxGeometry>
        </mxCell>
        <mxCell id="ieIyzetEA8g9ighdvRgT-41" value="" style="endArrow=classic;html=1;rounded=0;sketch=1;curveFitting=1;jiggle=2;shadow=1;flowAnimation=0;strokeColor=#0284f1;entryX=0.456;entryY=1.011;entryDx=0;entryDy=0;entryPerimeter=0;exitX=-0.009;exitY=0.179;exitDx=0;exitDy=0;exitPerimeter=0;" parent="1" source="ieIyzetEA8g9ighdvRgT-34" target="ieIyzetEA8g9ighdvRgT-24" edge="1">
          <mxGeometry width="50" height="50" relative="1" as="geometry">
            <mxPoint x="1199" y="601" as="sourcePoint" />
            <mxPoint x="956" y="691" as="targetPoint" />
            <Array as="points">
              <mxPoint x="993" y="480" />
              <mxPoint x="1070" y="480" />
              <mxPoint x="1155" y="480" />
            </Array>
          </mxGeometry>
        </mxCell>
        <mxCell id="ieIyzetEA8g9ighdvRgT-42" value="&lt;div style=&quot;font-size: 9px;&quot;&gt;PreBoleto&amp;nbsp;&lt;/div&gt;" style="edgeLabel;html=1;align=center;verticalAlign=middle;resizable=0;points=[];fontStyle=2;fontSize=9;labelBackgroundColor=none;" parent="ieIyzetEA8g9ighdvRgT-41" vertex="1" connectable="0">
          <mxGeometry x="0.2227" y="-2" relative="1" as="geometry">
            <mxPoint x="4" y="-17" as="offset" />
          </mxGeometry>
        </mxCell>
        <mxCell id="ieIyzetEA8g9ighdvRgT-44" value="Repasse&lt;div&gt;Worker&lt;/div&gt;" style="shape=trapezoid;perimeter=trapezoidPerimeter;whiteSpace=wrap;html=1;fixedSize=1;rounded=1;shadow=1;sketch=1;curveFitting=1;jiggle=2;fillColor=none;strokeColor=#1399fa;" parent="1" vertex="1">
          <mxGeometry x="870" y="280" width="120" height="60" as="geometry" />
        </mxCell>
        <mxCell id="ieIyzetEA8g9ighdvRgT-45" value="" style="endArrow=classic;html=1;rounded=0;sketch=1;curveFitting=1;jiggle=2;shadow=1;flowAnimation=0;strokeColor=#0284f1;exitX=1;exitY=0.5;exitDx=0;exitDy=0;entryX=0.414;entryY=0.03;entryDx=0;entryDy=0;entryPerimeter=0;" parent="1" source="ieIyzetEA8g9ighdvRgT-44" target="ieIyzetEA8g9ighdvRgT-24" edge="1">
          <mxGeometry width="50" height="50" relative="1" as="geometry">
            <mxPoint x="956" y="438" as="sourcePoint" />
            <mxPoint x="1150" y="314" as="targetPoint" />
            <Array as="points">
              <mxPoint x="1040" y="310" />
              <mxPoint x="1040" y="280" />
              <mxPoint x="1150" y="280" />
            </Array>
          </mxGeometry>
        </mxCell>
        <mxCell id="ieIyzetEA8g9ighdvRgT-46" value="Envio de&amp;nbsp;&lt;div style=&quot;font-size: 9px;&quot;&gt;Fechamento&lt;/div&gt;&lt;div style=&quot;font-size: 9px;&quot;&gt;Automático&lt;/div&gt;" style="edgeLabel;html=1;align=center;verticalAlign=middle;resizable=0;points=[];fontStyle=2;fontSize=9;labelBackgroundColor=none;" parent="ieIyzetEA8g9ighdvRgT-45" vertex="1" connectable="0">
          <mxGeometry x="0.2227" y="-2" relative="1" as="geometry">
            <mxPoint x="48" y="-32" as="offset" />
          </mxGeometry>
        </mxCell>
        <mxCell id="qIKEe-4HRbY4PZOgNSe7-1" value="1" style="ellipse;whiteSpace=wrap;html=1;aspect=fixed;strokeColor=#1ba2ff;sketch=1;curveFitting=1;jiggle=2;" vertex="1" parent="1">
          <mxGeometry x="852" y="450" width="30" height="30" as="geometry" />
        </mxCell>
        <mxCell id="qIKEe-4HRbY4PZOgNSe7-2" value="1" style="ellipse;whiteSpace=wrap;html=1;aspect=fixed;strokeColor=#1ba2ff;sketch=1;curveFitting=1;jiggle=2;" vertex="1" parent="1">
          <mxGeometry x="1012" y="484" width="30" height="30" as="geometry" />
        </mxCell>
        <mxCell id="qIKEe-4HRbY4PZOgNSe7-3" value="2" style="ellipse;whiteSpace=wrap;html=1;aspect=fixed;strokeColor=#1ba2ff;sketch=1;curveFitting=1;jiggle=2;" vertex="1" parent="1">
          <mxGeometry x="1060" y="530" width="30" height="30" as="geometry" />
        </mxCell>
        <mxCell id="qIKEe-4HRbY4PZOgNSe7-4" value="2" style="ellipse;whiteSpace=wrap;html=1;aspect=fixed;strokeColor=#1ba2ff;sketch=1;curveFitting=1;jiggle=2;" vertex="1" parent="1">
          <mxGeometry x="940" y="440" width="30" height="30" as="geometry" />
        </mxCell>
        <mxCell id="qIKEe-4HRbY4PZOgNSe7-8" value="1" style="ellipse;whiteSpace=wrap;html=1;aspect=fixed;strokeColor=#1ba2ff;sketch=1;curveFitting=1;jiggle=2;" vertex="1" parent="1">
          <mxGeometry x="990" y="273" width="30" height="30" as="geometry" />
        </mxCell>
      </root>
    </mxGraphModel>
  </diagram>
</mxfile>
